<?xml version="1.0" encoding="UTF-8" standalone="no"?>
<!-- Generator: Adobe Illustrator 19.0.0, SVG Export Plug-In . SVG Version: 6.00 Build 0)  -->

<svg
   version="1.1"
   id="Layer_1"
   x="0px"
   y="0px"
   viewBox="-100 -100 2238.2335 2269.5477"
   xml:space="preserve"
   inkscape:version="1.4 (86a8ad7, 2024-10-11)"
   sodipodi:docname="next.svg"
   width="2238.2351"
   height="2269.5491"
   inkscape:export-filename="next.png"
   inkscape:export-xdpi="90"
   inkscape:export-ydpi="90"
   xmlns:inkscape="http://www.inkscape.org/namespaces/inkscape"
   xmlns:sodipodi="http://sodipodi.sourceforge.net/DTD/sodipodi-0.dtd"
   xmlns="http://www.w3.org/2000/svg"
   xmlns:svg="http://www.w3.org/2000/svg"
   xmlns:rdf="http://www.w3.org/1999/02/22-rdf-syntax-ns#"
   xmlns:cc="http://creativecommons.org/ns#"
   xmlns:dc="http://purl.org/dc/elements/1.1/"><metadata
   id="metadata43"><rdf:RDF><cc:Work
       rdf:about=""><dc:format>image/svg+xml</dc:format><dc:type
         rdf:resource="http://purl.org/dc/dcmitype/StillImage" /></cc:Work></rdf:RDF></metadata><defs
   id="defs41" /><sodipodi:namedview
   pagecolor="#ffffff"
   bordercolor="#666666"
   borderopacity="1"
   objecttolerance="10"
   gridtolerance="10"
   guidetolerance="10"
   inkscape:pageopacity="0"
   inkscape:pageshadow="2"
   inkscape:window-width="3840"
   inkscape:window-height="2126"
   id="namedview39"
   showgrid="false"
   inkscape:zoom="0.23046876"
   inkscape:cx="-297.22033"
   inkscape:cy="3551.4575"
   inkscape:window-x="-11"
   inkscape:window-y="-11"
   inkscape:window-maximized="1"
   inkscape:current-layer="g8"
   fit-margin-top="50"
   fit-margin-left="600"
   fit-margin-right="600"
   fit-margin-bottom="50"
   inkscape:showpageshadow="0"
   inkscape:pagecheckerboard="0"
   inkscape:deskcolor="#d1d1d1" /><g
   id="g9"
   transform="translate(-598.18652,2168.3086)" /><g
   id="g11"
   transform="translate(-598.18652,2168.3086)" /><g
   id="g13"
   transform="translate(-598.18652,2168.3086)" /><g
   id="g15"
   transform="translate(-598.18652,2168.3086)" /><g
   id="g17"
   transform="translate(-598.18652,2168.3086)" /><g
   id="g19"
   transform="translate(-598.18652,2168.3086)" /><g
   id="g21"
   transform="translate(-598.18652,2168.3086)" /><g
   id="g23"
   transform="translate(-598.18652,2168.3086)" /><g
   id="g25"
   transform="translate(-598.18652,2168.3086)" /><g
   id="g27"
   transform="translate(-598.18652,2168.3086)" /><g
   id="g29"
   transform="translate(-598.18652,2168.3086)" /><g
   id="g31"
   transform="translate(-598.18652,2168.3086)" /><g
   id="g33"
   transform="translate(-598.18652,2168.3086)" /><g
   id="g35"
   transform="translate(-598.18652,2168.3086)" /><g
   id="g37"
   transform="translate(-598.18652,2168.3086)" /><text
   xml:space="preserve"
   style="font-style:normal;font-weight:normal;font-size:13.6859px;line-height:0%;font-family:sans-serif;letter-spacing:0px;word-spacing:0px;fill:#3987e2;fill-opacity:1;stroke:none;stroke-width:43.9163;stroke-linecap:butt;stroke-linejoin:miter;stroke-dasharray:none;stroke-opacity:1"
   x="-1.7578568"
   y="2068.6697"
   id="text4189"><tspan
     sodipodi:role="line"
     id="tspan4191"
     x="-1.7578568"
     y="2068.6697"
     style="font-style:normal;font-variant:normal;font-weight:normal;font-stretch:normal;font-size:712.811px;line-height:1.25;font-family:Birdman;-inkscape-font-specification:Birdman;fill:#3987e2;fill-opacity:1;stroke:none;stroke-width:43.9163;stroke-dasharray:none;stroke-opacity:1">NEXT</tspan></text>
<g
   id="g8"
   transform="matrix(0.82955523,0,0,0.82955523,3405.1169,-1326.187)"><g
     id="g10"
     transform="rotate(3.5914866,-3686.2891,2531.3633)"><g
       id="lGTQIX0RIjIjrp1pInr5Lk"
       fill="#2379df"
       transform="matrix(0.1,0,0,0.1,-3827,1534)"><g
         id="g2"><path
           id="ptFuQKuCJ"
           d="m 4910,14226 c 0,-25 3,-26 50,-26 36,0 52,4 57,15 8,23 0,27 -57,33 -49,4 -50,4 -50,-22 z" /><path
           id="p1C1tqmbKm"
           d="m 10433,11665 c -76,-17 -168,-64 -230,-119 -48,-42 -143,-177 -143,-203 0,-8 -6,-29 -14,-46 -8,-18 -29,-66 -47,-107 -45,-105 -177,-375 -639,-1305 -598,-1205 -614,-1236 -639,-1260 -12,-10 -21,-13 -21,-7 0,7 -9,3 -20,-8 -11,-11 -24,-20 -29,-20 -11,0 -597,-98 -628,-105 -13,-3 -23,-12 -23,-19 0,-19 -24,-27 -102,-35 -52,-5 -68,-4 -68,6 0,14 -21,16 -58,6 -17,-4 -22,-11 -19,-24 3,-11 1,-19 -3,-19 -5,0 -15,-3 -24,-6 -12,-4 -16,0 -16,15 0,14 -6,21 -19,21 -29,0 -51,-11 -51,-25 0,-7 -11,-15 -25,-17 -17,-4 -25,-1 -25,8 0,15 -21,18 -58,7 -17,-4 -22,-11 -19,-24 3,-11 1,-19 -3,-19 -5,0 -15,-3 -24,-6 -12,-4 -16,0 -16,15 0,14 -6,21 -19,21 -29,0 -51,-11 -51,-25 0,-7 -11,-15 -25,-17 -17,-4 -25,-1 -25,8 0,15 -21,18 -58,7 -16,-4 -22,-11 -19,-23 3,-13 -2,-19 -19,-23 -18,-3 -24,0 -24,14 0,12 -7,19 -19,19 -30,0 -51,-11 -51,-26 0,-17 -47,-19 -52,-3 -7,20 -68,0 -68,-22 0,-14 -7,-19 -25,-19 -16,0 -25,6 -25,15 0,15 -26,20 -54,9 -9,-3 -16,-12 -16,-20 0,-8 -10,-14 -25,-14 -14,0 -25,5 -25,10 0,11 -30,13 -54,4 -9,-3 -16,-14 -16,-24 0,-12 -11,-19 -37,-24 -58,-9 -133,-7 -133,4 0,11 -30,13 -54,4 -9,-3 -16,-14 -16,-24 0,-24 -40,-30 -115,-18 -33,5 -86,6 -117,3 -49,-6 -58,-5 -58,9 0,20 -17,21 -36,2 -8,-8 -40,-17 -71,-20 -111,-11 -354,-57 -451,-85 -219,-64 -448,-206 -583,-363 -79,-92 -187,-252 -230,-342 l -42,-87 14,-147 c 10,-107 14,-305 14,-727 0,-614 -5,-698 -48,-819 -56,-160 -244,-289 -391,-271 -65,8 -106,24 -106,41 0,8 -23,25 -51,39 -81,42 -133,96 -178,190 -23,45 -41,87 -41,93 0,5 -7,15 -15,22 -8,7 -15,23 -15,36 0,23 -19,74 -31,84 -3,3 -8,16 -11,30 -7,37 -944,2372 -979,2443 -56,110 -145,189 -262,231 -61,22 -80,24 -175,20 -97,-4 -113,-7 -179,-39 -114,-56 -223,-183 -223,-262 0,-19 -7,-36 -16,-41 -18,-10 -32,-92 -16,-92 6,0 11,-37 14,-89 2,-66 7,-94 20,-108 9,-10 20,-39 24,-63 4,-25 15,-61 26,-80 10,-19 18,-45 18,-57 0,-12 9,-37 20,-55 11,-18 20,-42 20,-53 1,-11 9,-38 20,-60 11,-22 19,-49 20,-60 0,-11 8,-36 19,-55 10,-19 21,-53 25,-74 4,-21 14,-48 21,-60 7,-12 17,-38 20,-59 4,-20 16,-54 26,-74 11,-21 19,-46 19,-58 0,-11 7,-28 15,-38 7,-11 17,-37 21,-60 3,-23 12,-51 20,-62 7,-11 16,-38 20,-60 4,-22 13,-49 20,-60 7,-11 16,-37 19,-58 4,-20 16,-54 26,-74 11,-21 19,-44 19,-52 0,-9 8,-38 19,-66 28,-75 42,-115 57,-165 22,-75 46,-143 65,-186 11,-23 19,-51 19,-63 0,-11 9,-38 20,-58 11,-21 20,-47 20,-59 0,-12 9,-41 20,-65 11,-24 20,-54 20,-67 0,-12 6,-33 14,-45 8,-12 17,-38 21,-57 4,-19 16,-52 26,-72 11,-21 19,-46 19,-58 0,-11 9,-37 20,-57 11,-21 20,-48 20,-60 0,-13 9,-40 20,-60 11,-21 20,-48 20,-61 0,-12 9,-40 20,-62 11,-22 20,-50 20,-62 0,-13 6,-32 14,-43 7,-11 18,-40 24,-65 5,-25 16,-61 22,-80 42,-121 53,-149 70,-182 11,-20 20,-43 20,-51 0,-18 87,-187 142,-274 87,-140 115,-175 684,-858 441,-529 542,-640 664,-727 85,-60 233,-139 262,-140 13,0 46,-6 73,-14 85,-22 258,-44 351,-44 103,0 304,-17 354,-30 19,-5 77,-11 129,-14 52,-3 96,-7 98,-9 2,-3 -34,-10 -79,-17 -128,-20 -298,-77 -298,-101 0,-5 -19,-18 -42,-29 -44,-20 -62,-31 -110,-62 -16,-10 -28,-13 -30,-7 -2,6 -48,-27 -103,-73 -98,-83 -239,-243 -229,-260 3,-5 -5,-23 -19,-41 -34,-46 -115,-219 -122,-264 -4,-21 -17,-83 -30,-138 -12,-55 -26,-118 -30,-139 -3,-21 -13,-45 -21,-53 -10,-10 -14,-38 -14,-93 0,-67 3,-78 18,-82 16,-4 21,-24 32,-124 7,-65 19,-138 25,-161 7,-23 9,-43 4,-45 -5,-2 0,-19 10,-38 26,-47 36,-67 57,-120 54,-136 260,-373 409,-472 99,-65 203,-120 213,-114 5,3 45,-6 88,-19 142,-44 284,-64 474,-66 141,-2 184,1 223,14 26,10 59,17 72,17 78,0 311,117 436,218 52,42 103,88 114,101 67,83 138,183 160,226 14,28 32,61 39,75 22,41 84,174 90,193 3,9 12,17 20,17 17,0 49,128 67,269 9,73 9,122 0,218 -12,124 -43,269 -61,287 -6,6 -10,21 -10,34 0,37 -112,257 -172,337 -107,145 -285,295 -454,383 -34,18 -71,32 -83,32 -12,0 -21,5 -21,10 0,6 -13,10 -29,10 -16,0 -31,5 -33,10 -3,11 -105,41 -200,60 -32,6 -58,15 -58,19 0,4 30,13 68,20 182,36 390,126 531,231 82,61 201,167 201,180 0,4 25,44 55,89 30,45 55,87 55,94 0,7 11,28 25,47 14,19 25,40 25,47 0,7 14,42 30,76 17,35 30,70 30,77 0,14 48,102 61,110 21,14 33,115 32,270 -1,91 2,167 7,170 18,12 28,346 23,788 -5,445 -5,464 13,477 11,8 27,15 37,15 10,0 17,8 17,21 0,19 -4,20 -38,14 l -39,-6 -6,67 c -4,36 -11,72 -17,79 -12,15 -13,23 -32,420 -17,377 -17,397 13,473 33,82 48,98 98,106 22,3 41,10 41,16 0,8 34,20 160,54 30,8 82,23 115,32 33,9 76,18 96,19 20,0 44,9 53,18 10,9 29,20 44,23 15,3 54,13 87,21 33,9 69,15 80,15 22,-1 338,88 345,97 10,13 58,28 125,40 39,7 113,25 165,42 52,16 100,29 106,29 12,0 115,31 209,62 136,46 279,124 391,214 47,38 183,202 237,287 56,87 90,159 145,308 28,74 57,151 66,170 8,19 31,77 51,129 43,112 83,213 101,255 7,17 18,48 24,70 7,22 16,45 20,50 4,6 22,50 39,100 18,49 36,94 41,99 6,6 10,18 10,28 0,9 12,43 26,75 24,52 44,104 103,266 10,26 21,50 24,54 4,3 7,12 7,20 0,7 8,32 19,56 10,23 36,89 59,147 104,271 164,426 212,550 77,201 130,320 151,341 17,17 24,39 20,62 -1,5 18,50 43,100 61,128 174,434 192,520 12,58 13,84 3,142 -30,183 -135,329 -295,409 -109,55 -217,68 -341,41 z" /></g></g><g
       id="l117WWUM8WuMouFo7bXskzK"
       fill="#176edc"
       transform="matrix(0.1,0,0,0.1,-3827,1534)"><g
         id="g3"><path
           id="p12zXMU4wC"
           d="m 10423,11663 c -15,-6 -17,-33 -3,-33 6,0 10,8 11,18 0,10 3,12 6,5 2,-7 18,-13 34,-13 21,0 27,4 23,15 -6,14 -45,19 -71,8 z" /><path
           id="p6E7xa7dU"
           d="m 10610,11655 c 0,-8 5,-15 10,-15 6,0 10,7 10,15 0,8 -4,15 -10,15 -5,0 -10,-7 -10,-15 z" /><path
           id="p10JrbBWkd"
           d="m 10667,11654 c -4,-4 -4,-10 -1,-15 6,-10 34,0 34,12 0,10 -24,12 -33,3 z" /><path
           id="pAPBvEVE2"
           d="m 10338,11633 c -34,-17 -37,-33 -5,-26 26,7 47,22 47,34 0,12 -9,10 -42,-8 z" /><path
           id="pS7dQtlLI"
           d="m 10767,11615 c -8,-18 28,-41 38,-24 4,6 5,11 4,12 -2,2 -11,8 -20,15 -14,10 -18,10 -22,-3 z" /><path
           id="p1D1xet0r5"
           d="m 10258,11589 c -24,-14 -23,-28 2,-22 11,3 20,12 20,19 0,16 0,16 -22,3 z" /><path
           id="pGmMZHcCL"
           d="m 10820,11580 c -8,-5 -11,-12 -7,-16 4,-4 13,-2 19,4 15,15 7,24 -12,12 z" /><path
           id="ptsArNSwq"
           d="m 10184,11527 c -17,-17 -47,-55 -67,-83 -20,-27 -345,-669 -722,-1424 -378,-756 -695,-1386 -705,-1400 -15,-21 -33,-28 -94,-39 -42,-8 -76,-17 -76,-22 0,-4 -16,-5 -35,-2 -20,3 -35,1 -35,-4 0,-5 -13,-8 -30,-5 -16,2 -30,0 -30,-4 0,-5 -23,-10 -52,-11 -29,-1 -55,-7 -59,-15 -5,-7 -9,-8 -9,-2 0,6 -13,9 -30,6 -16,-2 -30,-7 -30,-11 0,-4 -13,-6 -30,-3 -16,2 -30,0 -30,-4 0,-5 -23,-10 -52,-11 -29,-1 -55,-7 -59,-15 -5,-8 -9,-9 -9,-2 0,12 -220,-22 -230,-35 -3,-3 -29,-7 -59,-7 -33,-1 -57,-7 -62,-15 -5,-8 -9,-9 -9,-3 0,8 -15,8 -52,1 -29,-6 -55,-13 -58,-16 -3,-3 -29,-7 -59,-7 -33,-1 -57,-7 -62,-15 -5,-8 -9,-9 -9,-3 0,8 -15,8 -52,1 -29,-6 -55,-13 -58,-16 -3,-3 -29,-7 -59,-7 -33,-1 -57,-7 -62,-15 -5,-8 -9,-9 -9,-3 0,8 -15,8 -52,1 -29,-6 -55,-13 -58,-16 -3,-3 -29,-7 -59,-7 -33,-1 -57,-7 -62,-15 -5,-8 -9,-9 -9,-3 0,15 -102,-3 -112,-19 -5,-8 -8,-8 -8,-1 0,15 -222,-23 -232,-39 -5,-8 -8,-9 -8,-1 0,8 -31,6 -102,-7 -57,-10 -106,-19 -110,-19 -14,0 -8,-28 6,-33 42,-16 154,-17 206,-2 30,9 92,20 137,25 46,4 104,15 130,23 27,8 82,18 123,21 41,3 98,12 125,21 28,8 73,15 100,15 28,0 85,9 129,20 43,11 99,20 125,20 26,0 79,9 119,20 39,11 93,20 120,20 26,0 80,9 120,20 39,11 89,20 111,20 21,0 72,11 113,25 43,15 103,27 148,29 41,2 93,11 114,21 25,10 71,18 120,19 70,2 86,6 119,28 32,23 45,26 85,21 43,-5 52,-2 92,29 48,36 48,36 180,298 390,775 1078,2171 1129,2290 18,41 39,89 47,107 8,17 14,39 14,49 0,9 11,37 25,61 14,23 23,43 19,43 -3,0 1,11 10,25 9,14 14,25 10,25 -4,0 5,9 20,21 26,21 51,57 44,65 -3,2 -18,-11 -34,-29 z" /><path
           id="p10JnvtHvL"
           d="m 10861,11551 c -8,-5 -10,-14 -7,-20 8,-13 46,-15 46,-2 0,16 -25,30 -39,22 z" /><path
           id="prVohNk21"
           d="m 10981,11411 c -11,-7 -10,-10 5,-14 16,-4 16,-5 2,-6 -24,-1 -11,-31 13,-31 22,0 25,19 7,43 -9,11 -18,14 -27,8 z" /><path
           id="pCJNXuKM8"
           d="m 10940,10797 c 0,-8 -7,-17 -15,-21 -18,-6 -9,-36 11,-36 7,0 18,9 24,20 9,16 7,24 -5,36 -13,13 -15,13 -15,1 z" /><path
           id="p1BH8kcXzX"
           d="m 10903,10707 c -8,-13 -9,-16 -19,-59 -5,-21 -3,-28 9,-28 20,0 33,40 17,50 -8,5 -5,9 9,13 12,3 21,10 21,15 0,15 -29,22 -37,9 z" /><path
           id="pCTK6pBsH"
           d="m 10831,10557 c -54,-116 -71,-156 -110,-247 -21,-52 -63,-156 -91,-230 -48,-124 -108,-279 -212,-550 -23,-58 -49,-124 -59,-147 -11,-24 -19,-49 -19,-56 0,-8 -3,-17 -7,-20 -3,-4 -14,-28 -24,-54 -59,-162 -79,-214 -103,-266 -14,-32 -26,-66 -26,-75 0,-10 -4,-22 -10,-28 -5,-5 -23,-50 -41,-99 -17,-50 -35,-94 -39,-100 -4,-5 -13,-28 -20,-50 -6,-22 -17,-53 -24,-70 -18,-42 -58,-143 -101,-255 -20,-52 -43,-110 -51,-129 -9,-19 -38,-96 -66,-170 -55,-149 -89,-221 -145,-308 -38,-59 -182,-241 -208,-263 -8,-7 -15,-18 -15,-25 0,-18 -58,-65 -79,-65 -10,0 -32,-13 -49,-30 -18,-16 -38,-30 -46,-30 -19,0 -104,-40 -143,-68 -22,-15 -40,-21 -56,-17 -15,4 -38,0 -58,-11 -19,-9 -50,-21 -69,-25 -19,-4 -71,-17 -115,-29 -44,-12 -105,-28 -135,-35 -129,-31 -218,-54 -260,-68 -102,-34 -187,-57 -206,-57 -11,0 -24,-4 -30,-9 -9,-9 -135,-44 -235,-66 -31,-6 -62,-16 -69,-20 -8,-5 -37,-14 -64,-22 -28,-7 -85,-22 -126,-34 -41,-12 -100,-27 -132,-35 -31,-8 -92,-28 -136,-44 -86,-33 -84,-31 -128,-144 -26,-67 -27,-75 -20,-190 13,-233 26,-552 27,-638 0,-62 4,-90 15,-99 8,-6 14,-22 14,-35 0,-14 6,-24 14,-24 8,0 16,-8 18,-17 2,-9 3,229 3,529 0,301 2,549 5,552 3,3 62,20 130,39 69,19 370,105 670,191 300,85 595,170 655,187 393,113 578,214 763,420 146,163 203,273 361,691 22,59 56,146 75,195 19,48 155,401 301,783 147,382 282,733 300,780 137,348 166,433 153,441 -10,7 -9,9 3,9 15,0 37,46 85,173 5,13 1,17 -17,17 -19,0 -29,-11 -48,-53 z" /><path
           id="pkI9vJWbO"
           d="m 2537,8590 c -75,-10 -192,-68 -247,-122 -100,-100 -144,-206 -144,-343 v -90 l 478,-1430 c 263,-786 498,-1479 523,-1540 61,-152 150,-318 245,-460 96,-142 120,-174 132,-174 6,-1 5,4 -2,11 -7,7 -12,18 -12,26 0,16 -69,108 -80,105 -4,-1 -22,31 -39,72 -17,40 -42,90 -56,111 -14,20 -25,42 -25,48 0,6 -16,43 -35,81 -19,39 -35,76 -35,83 0,7 -9,30 -20,50 -17,33 -28,61 -70,182 -6,19 -17,55 -22,80 -6,25 -17,54 -24,65 -8,11 -14,30 -14,43 0,12 -9,40 -20,62 -11,22 -20,50 -20,62 0,13 -9,40 -20,61 -11,20 -20,47 -20,60 0,12 -9,39 -20,60 -11,20 -20,46 -20,57 0,12 -8,37 -19,58 -10,20 -22,53 -26,72 -4,19 -13,45 -21,57 -8,12 -14,33 -14,45 0,13 -9,43 -20,67 -11,24 -20,53 -20,65 0,12 -9,38 -20,59 -11,20 -20,47 -20,58 0,12 -8,40 -19,63 -19,43 -43,111 -65,186 -15,50 -29,90 -57,165 -11,28 -19,57 -19,66 0,8 -8,31 -19,52 -10,20 -22,54 -26,74 -3,21 -12,47 -19,58 -7,11 -16,38 -20,60 -4,22 -13,49 -20,60 -8,11 -17,39 -20,62 -4,23 -14,49 -21,60 -8,10 -15,27 -15,38 0,12 -8,37 -19,58 -10,20 -22,54 -26,74 -3,21 -13,47 -20,59 -7,12 -17,39 -21,60 -4,21 -15,55 -25,74 -11,19 -19,44 -19,55 -1,11 -9,38 -20,60 -11,22 -19,49 -20,60 0,11 -9,35 -20,53 -11,18 -20,43 -20,55 0,12 -8,38 -18,57 -11,19 -22,55 -26,80 -4,24 -15,53 -24,63 -34,37 -17,290 24,351 9,14 14,35 11,45 -3,12 1,22 9,25 8,3 14,13 14,21 0,9 5,13 10,10 6,-3 10,1 10,9 0,9 5,16 12,16 6,0 25,10 42,23 17,13 54,32 83,42 29,10 49,23 46,28 -4,6 -1,7 6,2 19,-11 160,-6 183,6 13,7 18,7 14,1 -3,-6 18,-18 49,-28 31,-9 75,-29 99,-44 28,-18 48,-25 57,-20 21,14 -17,49 -86,81 -85,38 -166,51 -258,39 z" /><path
           id="pdZ1GwZu4"
           d="m 2895,8460 c -19,-7 -19,-7 3,-14 26,-9 41,-1 26,13 -5,5 -18,5 -29,1 z" /><path
           id="p18yUCpB1W"
           d="m 2933,8433 c -21,-8 -15,-23 10,-23 18,0 19,-2 7,-10 -13,-8 -13,-10 2,-10 9,0 19,4 22,9 8,12 -26,39 -41,34 z" /><path
           id="pisOhfre7"
           d="m 2983,8365 c -17,-19 -16,-25 2,-25 8,0 15,9 15,20 0,23 -1,24 -17,5 z" /><path
           id="pG8JgzAPq"
           d="m 3033,8265 c -17,-19 -16,-25 2,-25 8,0 15,9 15,20 0,23 -1,24 -17,5 z" /><path
           id="pelNoBAqS"
           d="m 6125,8204 c -358,-62 -470,-91 -608,-161 -154,-77 -307,-186 -307,-218 0,-8 -10,-15 -22,-17 -15,-2 -24,-11 -26,-25 -2,-13 -9,-23 -16,-23 -15,0 -56,-42 -56,-57 0,-6 -6,-13 -14,-16 -22,-9 -152,-209 -208,-321 l -51,-101 12,-136 c 17,-202 15,-1366 -3,-1440 -33,-143 -154,-257 -307,-290 -41,-9 -68,-9 -123,2 -39,7 -81,12 -93,11 -13,-2 -23,2 -23,9 0,21 -44,48 -70,42 -14,-3 -26,-7 -28,-8 -8,-6 55,-65 70,-65 9,0 21,-7 26,-16 14,-24 76,-43 167,-50 142,-11 257,39 353,154 57,69 85,141 104,267 18,126 19,1318 0,1454 l -13,94 41,85 c 42,89 150,249 229,340 130,150 360,296 566,358 104,32 306,72 421,84 109,11 124,16 124,41 0,23 -25,23 -145,3 z" /><path
           id="pr7I00vDE"
           d="m 3113,8065 c -17,-19 -16,-25 2,-25 8,0 15,9 15,20 0,23 -1,24 -17,5 z" /><path
           id="pspTi2gIN"
           d="m 3142,7994 c -18,-19 -5,-64 19,-64 22,0 23,7 6,48 -10,24 -14,27 -25,16 z" /><path
           id="pX7WxCVB6"
           d="m 3154,7911 c 4,-6 15,-11 24,-11 13,0 14,-2 4,-9 -21,-13 -4,-61 22,-62 16,0 17,-2 5,-7 -14,-6 -14,-11 -2,-39 17,-42 47,-46 36,-5 -18,73 -51,137 -73,140 -14,2 -20,0 -16,-7 z" /><path
           id="p10asxDCPz"
           d="m 3269,7671 c -10,-4 -14,-12 -10,-23 4,-11 11,-14 19,-9 19,12 11,40 -9,32 z" /><path
           id="ptWDo1pVj"
           d="m 3292,7614 c -11,-12 -10,-14 5,-14 14,0 15,-2 4,-9 -17,-11 -7,-41 14,-41 12,0 14,7 9,28 -11,44 -17,52 -32,36 z" /><path
           id="pTrYBdk6f"
           d="m 3349,7471 c -10,-4 -14,-12 -10,-23 4,-11 11,-14 19,-9 19,12 11,40 -9,32 z" /><path
           id="p18wACo6oo"
           d="m 3372,7414 c -11,-12 -10,-14 5,-14 14,0 15,-2 4,-9 -17,-11 -7,-41 14,-41 12,0 14,7 9,28 -11,44 -17,52 -32,36 z" /><path
           id="pNdYieIJR"
           d="m 3429,7271 c -10,-4 -14,-12 -10,-23 4,-11 11,-14 19,-9 19,12 11,40 -9,32 z" /><path
           id="pSMzRIZ0J"
           d="m 3452,7214 c -11,-12 -10,-14 5,-14 14,0 15,-2 4,-9 -17,-11 -7,-41 14,-41 12,0 14,7 9,28 -11,44 -17,52 -32,36 z" /><path
           id="pNgZmAIYL"
           d="m 3509,7071 c -10,-4 -14,-12 -10,-23 4,-11 11,-14 19,-9 19,12 11,40 -9,32 z" /><path
           id="pRGdpbHdF"
           d="m 3533,7014 c -16,-17 0,-64 22,-64 12,0 14,7 9,28 -11,44 -17,52 -31,36 z" /><path
           id="pFJ4dCXiw"
           d="m 3582,6894 c -19,-21 -5,-64 22,-65 16,0 17,-2 5,-7 -14,-6 -14,-11 -2,-39 7,-18 20,-33 28,-33 18,0 13,26 -19,106 -17,42 -23,49 -34,38 z" /><path
           id="pwkOf1HHW"
           d="m 3662,6694 c -19,-21 -5,-64 22,-65 16,0 17,-2 5,-7 -14,-6 -14,-11 -2,-39 7,-18 20,-33 28,-33 18,0 13,26 -19,106 -17,42 -23,49 -34,38 z" /><path
           id="pAxegZMy6"
           d="m 3742,6494 c -19,-21 -5,-64 22,-65 16,0 17,-2 5,-7 -14,-6 -14,-11 -2,-39 7,-18 20,-33 28,-33 18,0 13,26 -19,106 -17,42 -23,49 -34,38 z" /><path
           id="pWREl36HC"
           d="m 3810,6310 c -12,-8 -11,-10 5,-10 14,0 16,-3 7,-9 -21,-13 -4,-61 22,-62 15,-1 16,-3 5,-6 -16,-4 -16,-7 -1,-44 18,-46 48,-55 38,-11 -8,32 -47,134 -55,144 -3,4 -13,3 -21,-2 z" /><path
           id="p1BBE5wTn9"
           d="m 3890,6110 c -12,-8 -12,-10 5,-10 15,0 17,-2 6,-9 -22,-14 -6,-61 22,-62 17,0 18,-2 6,-7 -16,-6 -16,-10 0,-49 12,-31 20,-40 30,-34 12,8 11,17 -2,58 -17,52 -46,123 -50,123 -1,0 -9,-5 -17,-10 z" /><path
           id="pgHZIUX0U"
           d="m 3956,5909 c 4,-7 11,-29 14,-49 5,-28 10,-34 25,-32 29,5 29,7 12,49 -10,26 -22,39 -37,41 -16,3 -20,0 -14,-9 z" /><path
           id="pXMMxX2rO"
           d="m 4007,5822 c -13,-2 -16,-9 -12,-20 4,-10 9,-30 12,-47 3,-16 10,-36 16,-42 10,-14 47,-18 47,-5 0,7 -40,116 -43,118 -1,0 -10,-1 -20,-4 z" /><path
           id="pVl37cylF"
           d="m 4058,5692 c -19,-4 -24,-37 -10,-59 9,-15 52,-6 52,11 -1,24 -26,52 -42,48 z" /><path
           id="p11IMIQH0f"
           d="m 4076,5598 c 8,-30 34,-58 51,-58 17,0 17,14 -2,50 -19,37 -60,43 -49,8 z" /><path
           id="p1BUwfs5gg"
           d="m 7398,5546 c -17,-12 -18,-42 -18,-372 0,-197 3,-369 6,-381 4,-13 13,-23 20,-23 12,0 14,65 14,395 0,217 -1,395 -2,395 -2,0 -11,-7 -20,-14 z" /><path
           id="p123omee5c"
           d="m 4138,5533 c -14,-4 -15,-7 -3,-30 8,-14 19,-29 25,-33 14,-8 50,-1 50,9 0,16 -56,57 -72,54 z" /><path
           id="p1AMYJ69Ne"
           d="m 7387,4658 c -3,-13 -6,-71 -6,-130 -1,-58 -8,-135 -16,-170 -15,-63 -20,-242 -9,-285 11,-41 31,-25 38,30 11,97 7,177 -9,183 -19,8 -20,54 -1,54 8,0 16,6 19,14 3,8 19,17 36,21 37,8 42,35 6,35 h -25 v 135 c 0,109 -3,135 -14,135 -8,0 -16,-10 -19,-22 z" /><path
           id="pjuyj6EAO"
           d="m 3546,4399 c 12,-22 148,-188 152,-184 5,4 -51,85 -60,85 -4,0 -8,6 -8,13 -1,6 -21,32 -46,57 -26,25 -42,38 -38,29 z" /><path
           id="p1Ae91kRMP"
           d="m 3737,4169 c 11,-21 157,-198 161,-194 4,3 -36,61 -68,99 -46,54 -102,111 -93,95 z" /><path
           id="p16eHP23Ln"
           d="m 7350,3949 c 0,-5 -4,-8 -8,-5 -10,6 -30,-46 -36,-95 -2,-19 -13,-51 -25,-70 -11,-19 -21,-40 -21,-48 0,-8 -13,-43 -30,-78 -16,-34 -30,-69 -30,-76 0,-7 -11,-28 -25,-47 -14,-19 -25,-40 -25,-46 0,-11 -112,-189 -140,-221 -5,-7 -10,-19 -10,-27 0,-8 -9,-18 -20,-21 -11,-3 -20,-11 -20,-17 0,-5 -10,-18 -22,-28 -13,-10 -20,-21 -16,-25 9,-9 57,27 58,43 0,6 5,12 11,12 17,0 95,85 161,174 102,137 238,451 200,464 -16,5 -15,22 2,22 7,0 16,9 19,20 3,13 0,20 -9,20 -8,0 -14,5 -14,10 0,6 7,10 15,10 8,0 15,9 15,20 0,11 -7,20 -15,20 -8,0 -15,-5 -15,-11 z" /><path
           id="pxP1JVoAU"
           d="m 3937,3929 c 12,-23 157,-197 162,-194 3,4 -30,51 -74,104 -36,44 -97,106 -88,90 z" /><path
           id="p13Nn8s7xi"
           d="m 4140,3686 c 0,-9 139,-176 146,-176 3,0 -22,35 -54,78 -57,75 -92,112 -92,98 z" /><path
           id="pgopuqh7n"
           d="m 4340,3448 c 0,-14 160,-198 226,-258 21,-19 -5,12 -57,70 -52,58 -111,125 -131,150 -20,25 -37,42 -38,38 z" /><path
           id="pjTQSwC42"
           d="m 4610,3156 c 0,-18 136,-113 235,-166 110,-57 219,-96 336,-121 88,-18 150,-23 411,-28 168,-3 304,-3 301,2 -2,4 -21,7 -41,7 -21,0 -49,8 -62,17 -29,20 -210,41 -364,42 -116,1 -282,24 -381,53 -38,11 -92,26 -119,34 -60,17 -124,47 -194,91 -29,18 -58,33 -64,33 -6,0 -22,10 -35,22 -13,12 -23,18 -23,14 z" /><path
           id="p53AVO9Oe"
           d="m 6879,3137 c -14,-7 -43,-31 -66,-54 -54,-57 -26,-56 51,2 33,25 54,45 47,45 -7,0 -9,5 -6,10 7,12 7,12 -26,-3 z" /><path
           id="p6lBLphva"
           d="m 6725,3021 c -4,-14 -13,-18 -28,-15 -34,6 -57,-5 -57,-28 0,-14 5,-18 16,-14 9,3 18,6 20,6 3,0 2,5 -2,12 -4,7 -3,8 4,4 15,-9 95,32 87,44 -10,17 -33,11 -40,-9 z" /><path
           id="perwSMzxq"
           d="m 6575,2950 c -4,-6 5,-10 20,-10 15,0 24,4 20,10 -3,6 -12,10 -20,10 -8,0 -17,-4 -20,-10 z" /><path
           id="pcq0dAk3O"
           d="m 6485,2923 c -22,-3 -44,-9 -49,-14 -6,-5 -18,-9 -27,-9 -10,0 -21,-5 -25,-12 -9,-13 75,-4 103,12 10,5 34,14 53,19 38,10 20,11 -55,4 z" /><path
           id="pWnOStLN1"
           d="m 5824,2785 c 3,-10 -1,-15 -11,-15 -9,0 -14,-2 -11,-5 3,-3 19,-2 36,1 34,7 34,34 0,34 -14,0 -18,-5 -14,-15 z" /><path
           id="pbfB86GB2"
           d="m 5654,2746 c -108,-44 -195,-92 -270,-146 -75,-55 -154,-127 -154,-141 0,-5 -9,-13 -20,-17 -39,-14 -169,-194 -230,-317 -97,-196 -130,-338 -132,-564 -1,-167 14,-265 59,-400 66,-198 156,-344 308,-497 345,-349 831,-466 1306,-313 35,11 106,41 157,66 83,40 92,47 79,60 -16,16 -19,15 -102,-30 -27,-15 -55,-28 -125,-59 -14,-6 -45,-12 -70,-13 -25,-1 -70,-10 -100,-19 -82,-24 -304,-22 -447,4 -145,27 -333,89 -436,144 -205,110 -216,118 -291,211 -27,33 -52,62 -56,65 -13,10 -130,253 -130,270 0,7 -7,24 -14,38 -26,47 -46,133 -67,292 -24,181 -20,273 16,424 13,56 26,118 30,139 7,45 81,203 128,275 17,28 43,68 56,91 39,64 183,205 241,235 30,16 65,36 79,45 48,31 66,41 101,57 19,9 44,27 55,40 11,13 47,35 80,48 59,24 83,46 48,46 -10,0 -54,-15 -99,-34 z" /><path
           id="pzd0KiwPO"
           d="m 6464,2768 c -4,-6 -2,-14 4,-16 7,-2 12,-8 12,-14 0,-13 26,-38 39,-38 6,0 11,4 11,8 0,5 7,9 15,9 8,0 15,-6 15,-13 0,-7 5,-16 12,-20 7,-4 8,-3 4,4 -18,29 80,-8 174,-66 19,-12 46,-27 60,-34 14,-7 29,-18 33,-25 5,-8 12,-11 17,-8 5,3 14,-4 20,-15 11,-21 55,-29 48,-8 -7,20 -132,111 -206,150 -75,40 -215,98 -237,98 -7,0 -17,-5 -21,-12 z" /><path
           id="pr2Po07vW"
           d="m 6941,2511 c -9,-6 -3,-18 26,-45 55,-52 89,-47 41,5 -35,38 -53,49 -67,40 z" /><path
           id="p19MHFx3jX"
           d="m 7033,2426 c -9,-11 -7,-18 11,-35 43,-40 63,-21 24,23 -19,21 -25,23 -35,12 z" /><path
           id="p1ElcPT84q"
           d="m 7102,2344 c -11,-12 -10,-15 3,-20 21,-8 29,1 18,19 -7,13 -10,13 -21,1 z" /><path
           id="pHEmILZHy"
           d="m 7143,2294 c -18,-19 -16,-24 10,-25 18,0 19,-2 5,-7 -16,-6 -16,-9 3,-39 12,-19 29,-33 40,-33 26,0 24,8 -13,67 -27,42 -35,49 -45,37 z" /><path
           id="pP3PXqEt3"
           d="m 7207,2182 c -16,-3 -15,-9 12,-60 46,-92 71,-151 71,-173 0,-30 18,-59 37,-59 23,0 13,57 -26,152 -28,67 -35,75 -54,71 -15,-3 -18,-2 -9,5 9,6 11,18 6,36 -7,30 -12,34 -37,28 z" /><path
           id="pKj0OTa3W"
           d="m 7339,1873 c -11,-3 -15,-11 -12,-24 8,-28 33,-24 33,6 0,14 -1,24 -2,24 -2,-1 -10,-3 -19,-6 z" /><path
           id="pDAvbrHrA"
           d="m 7323,1278 c 0,-7 -4,-21 -8,-30 -9,-23 23,-37 36,-17 5,10 3,16 -9,21 -16,6 -16,7 1,7 21,1 22,17 1,25 -21,8 -21,8 -21,-6 z" /><path
           id="pC7VS33QB"
           d="m 7283,1198 c -29,-63 -87,-186 -99,-208 -7,-14 -25,-47 -39,-75 -22,-43 -89,-138 -160,-226 -11,-14 -50,-49 -86,-78 -37,-29 -72,-64 -78,-77 -6,-13 -23,-30 -38,-36 -27,-11 -27,-12 -5,-16 16,-2 46,13 100,54 195,146 355,359 438,582 26,71 26,73 8,87 -25,19 -29,19 -41,-7 z" /></g></g><g
       id="l1UyKVhna2VE6m0AkYWff7T"
       fill="#00c188"
       transform="matrix(0.1,0,0,0.1,-3827,1534)"><g
         id="g4"><path
           id="pC5MkbEsj"
           d="m 1674,19129 c -231,-27 -444,-110 -670,-260 -129,-86 -317,-270 -407,-396 -156,-220 -259,-486 -302,-783 -21,-138 -16,-309 9,-357 11,-22 12,-33 4,-35 -8,-3 -5,-32 11,-104 37,-161 69,-251 136,-389 190,-392 505,-675 950,-853 101,-41 240,-102 598,-263 108,-49 287,-129 397,-179 110,-49 290,-130 400,-180 110,-49 290,-130 400,-180 110,-49 290,-130 400,-180 365,-164 604,-272 670,-302 36,-17 171,-77 300,-135 129,-58 327,-147 440,-198 113,-50 259,-116 325,-145 66,-29 165,-75 220,-101 55,-26 262,-119 460,-207 198,-89 457,-204 575,-257 118,-54 304,-137 413,-186 108,-49 287,-129 397,-179 110,-49 290,-130 400,-180 110,-49 290,-130 400,-180 110,-50 290,-131 400,-180 110,-50 290,-130 400,-180 515,-232 605,-272 755,-340 88,-40 248,-112 355,-160 629,-283 808,-364 920,-415 69,-31 316,-143 550,-247 234,-105 514,-230 623,-279 108,-49 286,-129 395,-178 922,-415 872,-391 872,-413 0,-10 -140,-297 -310,-637 -171,-340 -310,-621 -310,-625 0,-3 151,-6 336,-6 287,0 338,2 351,15 13,14 289,15 2514,13 2063,-3 2501,-5 2508,-16 7,-11 71,-13 329,-10 176,2 323,6 327,10 6,6 -35,72 -259,416 -49,75 -182,281 -296,457 -114,176 -262,406 -330,510 -68,105 -167,258 -220,340 -53,83 -152,236 -220,340 -68,105 -167,258 -220,340 -53,83 -152,236 -220,340 -68,105 -171,264 -230,355 -151,233 -496,767 -702,1085 -373,577 -673,1043 -757,1177 -20,32 -38,58 -41,57 -3,0 -147,-285 -320,-632 -272,-545 -318,-632 -335,-629 -26,4 -193,78 -900,394 -319,143 -764,343 -990,443 -225,101 -547,245 -715,320 -168,75 -510,228 -760,340 -250,112 -572,256 -715,320 -143,64 -485,217 -760,340 -275,123 -657,294 -850,380 -321,144 -469,210 -1140,510 -126,57 -322,144 -435,195 -113,50 -410,183 -660,295 -250,112 -572,256 -715,320 -143,64 -485,217 -760,340 -275,123 -637,285 -805,360 -168,75 -510,228 -760,340 -250,112 -653,291 -894,399 -573,256 -735,317 -1080,402 -123,30 -154,34 -260,33 -67,-1 -153,-5 -192,-10 z" /></g></g><g
       id="lFCAwPrSkuIPOD2FizspXf"
       fill="#066ac9"
       transform="matrix(0.1,0,0,0.1,-3827,1534)"><g
         id="g5"><path
           id="p11e0yGdwU"
           d="m 4810,14236 c -14,-7 -47,-16 -73,-20 -68,-8 -177,-69 -246,-135 -63,-61 -131,-156 -131,-183 0,-9 -4,-20 -10,-23 -5,-3 -10,-25 -10,-48 0,-23 -7,-67 -15,-97 -20,-75 -19,-162 4,-300 11,-63 25,-169 31,-235 6,-66 15,-156 20,-200 6,-44 14,-127 20,-185 5,-58 14,-150 20,-205 6,-55 15,-147 20,-205 5,-58 18,-211 29,-340 12,-129 30,-345 41,-480 23,-269 34,-406 49,-580 6,-63 15,-171 20,-240 6,-69 15,-179 21,-245 60,-717 87,-1048 104,-1280 9,-110 20,-254 26,-320 5,-66 14,-190 20,-275 6,-85 15,-211 20,-280 5,-69 12,-204 16,-300 3,-96 10,-200 15,-230 5,-30 14,-131 19,-225 6,-93 14,-193 18,-221 7,-39 5,-59 -6,-80 -13,-25 -13,-49 -3,-174 6,-80 11,-167 11,-195 0,-27 5,-57 11,-65 7,-11 9,41 5,178 l -6,193 49,98 c 125,248 309,468 491,586 206,134 346,179 780,250 51,9 96,18 99,20 4,5 -14,170 -25,228 -5,22 -10,28 -25,24 -11,-3 -19,0 -19,8 0,7 -7,26 -15,41 -21,40 -22,264 -1,264 13,0 13,4 1,83 -6,39 -35,54 -35,17 0,-11 -4,-20 -10,-20 -5,0 -7,12 -4,28 7,36 -13,191 -27,208 -6,7 -13,40 -16,74 -6,59 -5,60 20,60 19,0 24,4 22,18 -2,9 -7,34 -10,55 -6,39 -30,51 -38,20 -3,-13 -5,-12 -6,5 0,13 -6,33 -12,44 -6,12 -15,73 -21,137 -5,64 -15,135 -23,158 -8,23 -18,93 -21,155 -4,62 -11,118 -15,124 -5,6 -13,48 -17,93 -8,80 -8,81 15,81 18,0 23,5 23,28 0,42 -11,72 -26,72 -8,0 -14,-8 -14,-17 -1,-10 -8,0 -16,22 -8,22 -19,92 -24,155 -6,63 -16,138 -24,165 -8,28 -17,99 -21,160 -4,60 -11,115 -16,121 -5,6 -12,45 -15,88 l -7,76 h 26 c 19,0 24,4 22,18 -2,9 -7,34 -10,55 -7,41 -34,52 -36,15 -1,-18 -3,-16 -8,8 -4,17 -11,36 -15,42 -4,7 -12,69 -17,139 -6,70 -15,136 -21,147 -6,11 -15,78 -19,149 -4,71 -12,134 -18,141 -6,7 -14,47 -17,90 l -7,76 h 26 c 19,0 24,4 22,18 -2,9 -7,34 -10,55 -6,39 -30,51 -38,20 -3,-13 -5,-12 -6,5 0,13 -6,33 -12,45 -7,12 -16,77 -20,145 -4,68 -13,130 -19,137 -6,7 -15,78 -19,157 -4,78 -13,153 -19,165 -7,12 -12,47 -12,77 0,48 3,56 19,56 13,0 17,6 15,23 -12,83 -16,97 -29,97 -8,0 -15,7 -15,15 0,9 -7,26 -16,40 -19,29 -10,115 12,115 10,0 13,8 9,23 -4,22 -15,99 -55,402 -30,232 -39,280 -50,283 -5,2 -10,11 -10,21 0,9 -5,22 -11,28 -14,14 -29,83 -18,83 28,0 -60,141 -134,212 -96,94 -273,175 -354,163 -28,-4 -43,-2 -43,4 0,16 -100,13 -130,-3 z" /><path
           id="pjG2fEeQ0"
           d="m 2620,8580 c 0,-5 7,-10 15,-10 8,0 15,5 15,10 0,6 -7,10 -15,10 -8,0 -15,-4 -15,-10 z" /><path
           id="pnJyedX9O"
           d="m 2780,8540 c 0,-5 7,-10 15,-10 8,0 15,5 15,10 0,6 -7,10 -15,10 -8,0 -15,-4 -15,-10 z" /><path
           id="pXMSXyXx3"
           d="m 7948,8472 c -34,-7 -18,-23 19,-20 35,3 61,28 29,28 -9,0 -16,-6 -16,-12 0,-9 -3,-9 -8,-3 -4,6 -15,9 -24,7 z" /><path
           id="p16TaA14wG"
           d="m 7860,8444 c 0,-9 5,-14 12,-12 18,6 21,28 4,28 -9,0 -16,-7 -16,-16 z" /><path
           id="pAuk8pSxL"
           d="m 7812,8439 c 2,-6 8,-10 13,-10 5,0 11,4 13,10 2,6 -4,11 -13,11 -9,0 -15,-5 -13,-11 z" /><path
           id="pPZtg7zMm"
           d="m 7708,8433 c -21,-5 -24,-23 -4,-23 8,0 16,7 20,15 3,8 4,14 3,14 -1,-1 -10,-3 -19,-6 z" /><path
           id="pViw3NlDl"
           d="m 7740,8424 c 0,-9 7,-14 17,-12 25,5 28,28 4,28 -12,0 -21,-6 -21,-16 z" /><path
           id="p38oYbypx"
           d="m 7622,8409 c 2,-6 8,-10 13,-10 5,0 11,4 13,10 2,6 -4,11 -13,11 -9,0 -15,-5 -13,-11 z" /><path
           id="pM6nEWtYy"
           d="m 7570,8400 c 0,-5 7,-10 15,-10 8,0 15,5 15,10 0,6 -7,10 -15,10 -8,0 -15,-4 -15,-10 z" /><path
           id="p3fqPHZSn"
           d="m 7468,8393 c -21,-5 -24,-23 -4,-23 8,0 16,7 20,15 3,8 4,14 3,14 -1,-1 -10,-3 -19,-6 z" /><path
           id="phXgF9CNE"
           d="m 7500,8384 c 0,-9 7,-14 17,-12 25,5 28,28 4,28 -12,0 -21,-6 -21,-16 z" /><path
           id="p5KICDvbf"
           d="m 7380,8370 c 0,-5 7,-10 15,-10 8,0 15,5 15,10 0,6 -7,10 -15,10 -8,0 -15,-4 -15,-10 z" /><path
           id="pHYT3X42h"
           d="m 7330,8360 c 0,-5 7,-10 15,-10 8,0 15,5 15,10 0,6 -7,10 -15,10 -8,0 -15,-4 -15,-10 z" /><path
           id="p11KstHsIu"
           d="m 7262,8348 c 6,-18 28,-21 28,-4 0,9 -7,16 -16,16 -9,0 -14,-5 -12,-12 z" /><path
           id="pymRegr9Q"
           d="m 7140,8330 c 0,-5 7,-10 15,-10 8,0 15,5 15,10 0,6 -7,10 -15,10 -8,0 -15,-4 -15,-10 z" /><path
           id="pIy0RRYML"
           d="m 7090,8320 c 0,-5 7,-10 15,-10 8,0 15,5 15,10 0,6 -7,10 -15,10 -8,0 -15,-4 -15,-10 z" /><path
           id="p1B5Q2lEKs"
           d="m 7030,8305 c 0,-8 5,-15 10,-15 6,0 10,7 10,15 0,8 -4,15 -10,15 -5,0 -10,-7 -10,-15 z" /><path
           id="pVUWJ0g5W"
           d="m 6900,8290 c 0,-5 7,-10 15,-10 8,0 15,5 15,10 0,6 -7,10 -15,10 -8,0 -15,-4 -15,-10 z" /><path
           id="ptZHXDTFP"
           d="m 6780,8264 c 0,-9 5,-14 12,-12 18,6 21,28 4,28 -9,0 -16,-7 -16,-16 z" /><path
           id="pHz2uT914"
           d="m 6536,8225 c -4,-10 1,-15 14,-15 11,0 20,7 20,15 0,8 -6,15 -14,15 -8,0 -16,-7 -20,-15 z" /><path
           id="pfUcuE1kW"
           d="m 6420,8210 c 0,-5 7,-10 15,-10 8,0 15,5 15,10 0,6 -7,10 -15,10 -8,0 -15,-4 -15,-10 z" /><path
           id="p09Td7rCz"
           d="m 9775,7779 c -4,-6 -5,-13 -2,-16 7,-7 27,6 27,18 0,12 -17,12 -25,-2 z" /><path
           id="p11S6i9edQ"
           d="m 9592,7520 c -32,-41 -13,-44 21,-4 18,21 24,34 15,33 -7,0 -23,-13 -36,-29 z" /><path
           id="ptt0eywrI"
           d="m 9480,7405 c -7,-8 -8,-15 -2,-15 5,0 15,7 22,15 7,8 8,15 2,15 -5,0 -15,-7 -22,-15 z" /><path
           id="pHQ8xKhWc"
           d="m 7378,6633 c -13,-3 -18,-15 -18,-44 0,-32 3,-39 20,-39 17,0 20,7 20,45 0,25 -1,44 -2,44 -2,-1 -11,-3 -20,-6 z" /><path
           id="pKy0mXRJw"
           d="m 7360,6225 c 0,-158 2,-185 15,-185 13,0 15,27 15,185 0,158 -2,185 -15,185 -13,0 -15,-27 -15,-185 z" /><path
           id="pl4G8IAf0"
           d="m 9728,5943 c -26,-7 -22,-31 5,-35 12,-2 -2,-7 -33,-12 -30,-4 -71,-12 -90,-17 -19,-6 -75,-16 -125,-24 -49,-8 -124,-20 -165,-28 -41,-8 -107,-20 -146,-26 -39,-6 -78,-13 -87,-17 -13,-5 -17,0 -17,20 0,19 -5,26 -19,26 -34,0 -51,-11 -51,-34 0,-23 -20,-27 -373,-86 -202,-34 -353,-59 -480,-80 -204,-34 -348,-60 -427,-78 -95,-21 -180,-19 -197,4 -10,14 -22,16 -60,10 -26,-3 -53,-12 -60,-19 -9,-9 -13,-150 -15,-605 -2,-325 0,-592 3,-592 3,0 16,10 29,23 14,12 43,27 65,34 22,6 72,20 110,32 193,56 254,73 300,83 28,5 79,18 115,29 36,11 74,19 84,19 11,0 47,8 80,19 77,24 137,40 201,53 28,6 76,19 108,29 31,11 70,19 85,19 15,0 53,9 85,20 31,11 67,20 80,20 12,0 48,9 80,20 31,11 67,20 80,20 12,0 48,9 80,20 31,11 67,20 80,20 12,0 48,9 80,20 31,11 70,20 86,20 15,0 44,6 63,14 19,8 59,18 89,22 30,4 62,11 71,16 10,5 50,15 90,23 72,14 183,39 308,70 160,40 286,124 332,220 37,76 43,85 60,85 19,0 35,43 44,120 7,55 -17,184 -45,237 -28,57 -93,117 -146,137 -25,10 -70,33 -100,51 -31,18 -74,36 -98,39 -38,6 -43,9 -42,34 0,26 -3,27 -50,29 -27,0 -58,-1 -67,-4 z" /><path
           id="pIAUdsjpB"
           d="m 4840,5763 c -3,-23 -2,-39 3,-34 5,5 7,24 5,42 -3,33 -4,33 -8,-8 z" /><path
           id="p17o9JTl5B"
           d="m 4802,5616 c -18,-40 -15,-68 4,-33 8,16 14,36 12,44 -2,12 -7,9 -16,-11 z" /><path
           id="p4SpCitxI"
           d="m 4755,5540 c -10,-11 -13,-20 -8,-20 13,0 38,29 31,35 -3,3 -13,-4 -23,-15 z" /><path
           id="p19w3vOEhy"
           d="m 4704,5489 c -10,-12 -31,-27 -46,-35 -16,-8 -28,-20 -27,-27 0,-9 2,-9 6,1 2,6 9,10 14,7 13,-9 49,14 49,31 0,8 4,13 9,10 5,-3 11,3 14,14 6,25 5,25 -19,-1 z" /><path
           id="pXwFV0eC4"
           d="m 4553,5408 c -18,-6 -33,-17 -33,-24 0,-18 19,-18 26,0 3,8 11,13 19,10 7,-3 15,2 18,10 4,9 5,16 4,15 -1,-1 -17,-6 -34,-11 z" /><path
           id="p17mc7PevA"
           d="m 4473,5393 c -35,-5 -43,-17 -17,-27 25,-10 33,-7 44,14 6,11 9,19 8,18 -2,0 -18,-3 -35,-5 z" /><path
           id="p1AzDYR9Gr"
           d="m 7180,895 c -7,-9 -10,-18 -7,-22 8,-7 37,15 37,28 0,14 -16,11 -30,-6 z" /><path
           id="p3PQg76Aq"
           d="m 7126,815 c -3,-9 0,-15 8,-15 8,0 16,7 20,15 3,9 0,15 -8,15 -8,0 -16,-7 -20,-15 z" /><path
           id="pstuXQS9v"
           d="m 7100,775 c -7,-8 -8,-15 -2,-15 5,0 15,7 22,15 7,8 8,15 2,15 -5,0 -15,-7 -22,-15 z" /><path
           id="p31xJtpZu"
           d="m 7060,725 c -7,-8 -8,-15 -2,-15 5,0 15,7 22,15 7,8 8,15 2,15 -5,0 -15,-7 -22,-15 z" /><path
           id="p11F8ejby5"
           d="m 5461,467 c 2,-2 18,-11 34,-21 l 30,-17 -24,20 c -13,12 -28,21 -34,21 -6,0 -8,-1 -6,-3 z" /></g></g><g
       id="l5LO1BusGxWowU8cCFwuM7x"
       fill="#00bb78"
       transform="matrix(0.1,0,0,0.1,-3827,1534)"><g
         id="g6"><path
           id="pxWOe1N6K"
           d="m 2050,19110 c 0,-5 7,-10 15,-10 8,0 15,5 15,10 0,6 -7,10 -15,10 -8,0 -15,-4 -15,-10 z" /><path
           id="p1Cyff8eb0"
           d="m 2210,19070 c 0,-5 7,-10 15,-10 8,0 15,5 15,10 0,6 -7,10 -15,10 -8,0 -15,-4 -15,-10 z" /><path
           id="psy3vjPd0"
           d="m 326,17834 c -4,-14 -5,-29 -2,-31 3,-3 8,7 12,21 3,15 4,29 1,32 -2,3 -8,-7 -11,-22 z" /><path
           id="pIBHTQn6Z"
           d="m 293,17455 c 4,-157 8,-189 48,-330 11,-38 23,-81 26,-95 2,-14 13,-43 23,-65 9,-22 21,-51 25,-65 12,-44 46,-112 103,-210 199,-341 485,-577 897,-740 44,-17 88,-36 97,-41 10,-5 25,-9 33,-9 8,0 15,-4 15,-10 0,-5 8,-10 18,-10 9,0 31,-8 48,-19 17,-10 41,-22 55,-26 13,-4 56,-22 94,-40 39,-18 88,-40 110,-50 22,-9 74,-33 115,-52 41,-19 93,-43 115,-53 22,-10 65,-29 95,-43 292,-131 397,-177 408,-177 6,0 12,-4 12,-10 0,-5 7,-10 15,-10 8,0 23,-4 33,-9 16,-10 151,-72 237,-111 22,-10 70,-32 107,-49 37,-17 69,-31 72,-31 3,0 47,-20 98,-43 51,-24 125,-57 163,-73 39,-16 72,-32 73,-36 2,-5 10,-8 18,-8 8,0 63,-23 122,-51 59,-28 125,-59 147,-69 22,-10 70,-32 107,-49 37,-17 70,-31 73,-31 4,0 44,-18 90,-40 86,-41 105,-47 105,-30 0,5 -20,15 -44,21 -25,6 -47,17 -50,24 -3,8 -21,17 -41,21 -20,3 -39,13 -42,20 -3,8 -10,14 -17,14 -6,0 -48,18 -93,39 -45,22 -97,43 -117,47 -20,3 -36,10 -36,14 0,10 -47,30 -70,30 -11,0 -20,5 -20,10 0,6 -12,15 -27,22 -16,6 -65,28 -110,49 -46,22 -89,39 -97,39 -8,0 -18,4 -21,10 -3,5 -25,15 -48,21 -23,6 -52,19 -65,30 -14,10 -31,19 -39,19 -8,0 -26,9 -40,20 -14,11 -31,20 -38,20 -7,0 -44,15 -82,34 -38,19 -85,37 -105,41 -20,4 -39,13 -42,20 -2,7 -19,16 -37,20 -18,4 -45,16 -59,26 -14,10 -37,20 -52,21 -16,1 -28,5 -28,9 0,9 -127,69 -146,69 -9,0 -22,7 -30,15 -9,8 -26,15 -38,15 -13,0 -34,9 -48,19 -13,11 -36,23 -51,26 -14,4 -31,13 -38,21 -6,8 -17,14 -23,14 -7,0 -49,18 -94,39 -45,22 -97,43 -116,47 -20,3 -40,12 -47,20 -6,7 -26,16 -45,20 -19,3 -34,10 -34,15 0,10 -45,30 -72,32 -10,1 -20,7 -22,14 -3,7 -11,13 -18,13 -7,0 -35,12 -63,25 -27,14 -56,25 -63,25 -7,0 -20,7 -28,15 -9,8 -29,15 -45,15 -17,0 -36,8 -46,20 -10,11 -33,23 -52,26 -18,4 -42,15 -52,25 -11,11 -30,19 -44,19 -14,0 -34,9 -45,20 -11,11 -31,20 -44,20 -14,0 -28,5 -32,11 -7,12 -83,48 -114,54 -11,2 -29,13 -41,24 -12,11 -34,23 -49,26 -16,3 -36,15 -46,26 -10,11 -37,28 -61,39 -39,17 -87,56 -213,170 -40,37 -190,232 -214,279 -8,14 -24,35 -36,46 -12,11 -28,33 -36,50 -7,16 -17,37 -22,45 -5,8 -14,25 -20,38 -7,12 -16,30 -21,40 -23,43 -41,92 -41,110 0,11 -7,33 -15,48 -8,16 -15,49 -15,74 0,26 -7,56 -17,70 -11,16 -18,48 -19,99 -3,74 -18,131 -35,131 -5,0 -9,46 -9,103 0,56 -5,109 -11,117 -7,11 -9,-33 -6,-145 z" /><path
           id="pTcLKRyun"
           d="m 4120,14741 c 14,-11 28,-21 33,-21 9,0 85,-33 147,-63 24,-12 47,-22 50,-22 6,0 47,-19 121,-57 20,-10 44,-18 53,-18 9,0 16,-4 16,-9 0,-5 20,-15 45,-22 25,-7 45,-17 45,-21 0,-4 4,-8 10,-8 11,0 112,-45 313,-139 48,-22 92,-41 98,-41 6,0 28,-8 48,-19 83,-42 132,-62 144,-58 6,3 -1,10 -18,16 -16,6 -52,22 -80,35 -27,14 -67,32 -88,41 -21,9 -55,28 -74,41 -20,13 -42,24 -50,24 -8,0 -26,9 -40,20 -14,11 -37,20 -50,20 -13,0 -31,7 -40,15 -8,9 -28,19 -44,22 -16,3 -34,12 -40,19 -6,8 -17,14 -23,14 -7,0 -50,19 -97,41 -46,23 -97,43 -112,44 -15,1 -35,9 -45,17 -9,9 -30,18 -46,22 -16,4 -41,16 -54,27 -14,10 -35,19 -48,19 -12,0 -24,4 -26,9 -5,13 -99,58 -138,65 l -35,7 z" /><path
           id="pHuYPru0A"
           d="m 5460,14141 c 28,-23 54,-28 48,-8 -3,6 -14,12 -25,13 -11,1 -27,4 -34,8 -8,4 -3,-2 11,-13 z" /><path
           id="pVHv662yM"
           d="m 5520,14121 c 0,-10 21,-29 33,-30 4,0 29,-12 57,-26 27,-14 56,-25 65,-25 8,0 15,-4 15,-9 0,-5 20,-15 45,-22 25,-7 45,-17 45,-21 0,-4 7,-8 15,-8 8,0 23,-4 33,-9 32,-16 117,-53 122,-53 3,-1 21,-9 40,-19 19,-11 41,-19 49,-19 25,0 -7,27 -40,34 -17,3 -42,15 -56,26 -14,11 -36,20 -49,20 -13,0 -24,4 -24,8 0,5 -33,23 -72,41 -40,19 -82,38 -93,44 -113,58 -185,84 -185,68 z" /><path
           id="p1COaaMlgM"
           d="m 15440,14095 c 1,-26 2,-28 11,-12 8,14 8,22 0,30 -8,8 -11,3 -11,-18 z" /><path
           id="p13XG0gdQO"
           d="m 15399,14035 c -6,-41 -5,-55 2,-55 13,0 22,41 10,53 -6,6 -12,7 -12,2 z" /><path
           id="pn0Kx5cuA"
           d="m 15355,13937 c -10,-40 0,-56 15,-24 10,20 11,30 2,39 -8,8 -13,4 -17,-15 z" /><path
           id="pQ1Q8OEXF"
           d="m 6060,13871 c 0,-3 15,-12 33,-19 17,-7 59,-26 92,-42 99,-48 424,-190 435,-190 5,0 10,-4 10,-10 0,-5 7,-10 15,-10 8,0 23,-4 33,-9 17,-9 159,-76 237,-111 22,-10 65,-29 95,-43 30,-14 75,-34 100,-45 25,-11 102,-45 172,-76 70,-31 132,-56 138,-56 5,0 10,-4 10,-10 0,-5 7,-10 15,-10 8,0 23,-4 33,-9 9,-5 58,-28 107,-51 50,-23 98,-46 107,-51 10,-5 25,-9 33,-9 8,0 15,-4 15,-10 0,-5 6,-10 14,-10 8,0 34,-10 58,-21 23,-12 52,-25 63,-30 11,-4 58,-25 105,-47 194,-90 223,-102 236,-102 8,0 14,-4 14,-10 0,-5 7,-10 15,-10 13,0 186,-77 247,-111 10,-5 25,-9 33,-9 8,0 15,-4 15,-10 0,-5 6,-10 14,-10 8,0 31,-8 53,-19 76,-37 266,-123 348,-157 39,-16 72,-32 73,-36 2,-5 10,-8 18,-8 8,0 22,-4 32,-9 17,-10 156,-75 237,-111 22,-10 65,-29 95,-43 292,-131 397,-177 408,-177 6,0 12,-4 12,-10 0,-5 7,-10 14,-10 8,0 35,-11 60,-24 26,-14 46,-22 46,-20 0,2 18,-5 40,-16 47,-24 68,-27 51,-6 -6,7 -25,16 -42,20 -17,3 -42,15 -56,26 -14,11 -36,20 -49,20 -13,0 -24,4 -24,9 0,5 -15,14 -32,21 -18,6 -49,21 -69,31 -20,10 -46,19 -58,19 -11,0 -21,4 -21,10 0,5 -16,13 -35,19 -19,5 -47,19 -61,30 -15,12 -33,21 -41,21 -8,0 -26,9 -40,20 -14,11 -31,20 -38,20 -7,0 -44,15 -81,34 -38,18 -84,37 -103,41 -19,4 -41,14 -49,22 -8,8 -27,17 -43,20 -16,3 -34,12 -40,19 -6,8 -29,17 -50,20 -22,4 -39,10 -39,14 0,11 -127,70 -150,70 -11,0 -20,4 -20,10 0,5 -19,14 -42,21 -24,6 -50,17 -58,24 -8,7 -27,16 -42,20 -15,4 -32,13 -39,21 -6,8 -17,14 -23,14 -6,0 -53,20 -104,45 -51,25 -102,45 -113,45 -11,0 -27,7 -35,15 -9,8 -27,18 -42,21 -15,4 -34,12 -42,19 -18,16 -220,105 -236,105 -6,0 -17,7 -24,15 -7,8 -30,18 -51,21 -21,4 -44,13 -50,20 -6,8 -19,14 -29,14 -9,0 -28,9 -42,19 -13,11 -38,23 -54,27 -16,4 -35,11 -41,17 -25,19 -135,67 -155,67 -11,0 -26,7 -34,15 -9,8 -27,18 -42,22 -15,3 -38,15 -52,25 -14,10 -37,19 -52,20 -16,1 -28,6 -28,10 0,9 -98,55 -139,65 -14,3 -32,12 -39,20 -7,7 -24,13 -36,13 -13,0 -34,9 -48,19 -13,11 -36,23 -51,26 -14,4 -31,13 -38,21 -6,8 -17,14 -23,14 -7,0 -48,17 -92,39 -45,21 -96,42 -114,46 -19,4 -40,14 -48,21 -7,8 -25,17 -40,20 -15,4 -34,12 -42,19 -20,16 -77,35 -84,28 -3,-4 -6,-1 -6,5 0,12 -122,72 -147,72 -8,0 -21,7 -29,15 -9,8 -26,15 -38,15 -13,0 -34,8 -47,19 -13,10 -35,22 -49,26 -14,4 -41,16 -60,26 -19,11 -43,19 -52,19 -10,0 -18,4 -18,8 0,11 -46,32 -70,32 -10,0 -20,5 -22,11 -4,11 -78,31 -78,20 z" /><path
           id="phKsgHW2M"
           d="m 15315,13857 c -10,-40 0,-56 15,-24 10,20 11,30 2,39 -8,8 -13,4 -17,-15 z" /><path
           id="pyRWLZtK8"
           d="m 15275,13777 c -10,-40 0,-56 15,-24 10,20 11,30 2,39 -8,8 -13,4 -17,-15 z" /><path
           id="pCb1ZB4Fk"
           d="m 15231,13688 c -13,-37 -5,-51 15,-24 16,23 18,42 5,50 -5,3 -14,-8 -20,-26 z" /><path
           id="pLJRARyoq"
           d="m 15200,13628 c 0,-9 -3,-23 -6,-32 -3,-9 -1,-16 4,-16 16,0 26,40 13,53 -8,8 -11,7 -11,-5 z" /><path
           id="p1DBEqSYRG"
           d="m 15164,13534 c -4,-10 -9,-22 -11,-26 -2,-5 0,-8 6,-8 11,0 26,39 17,47 -3,3 -9,-3 -12,-13 z" /><path
           id="pgvXcHI8g"
           d="m 15112,13459 c -7,-10 -12,-28 -12,-39 0,-18 3,-19 20,-10 11,6 20,21 20,35 0,32 -13,38 -28,14 z" /><path
           id="pObCcwKHw"
           d="m 10060,12069 c 0,-4 15,-12 33,-19 17,-7 69,-30 113,-51 84,-40 104,-46 104,-29 0,10 -124,70 -145,70 -7,0 -18,6 -24,14 -12,14 -81,27 -81,15 z" /><path
           id="psDYMCRlV"
           d="m 10324,11951 c 4,-6 14,-11 22,-11 8,0 14,-4 14,-10 0,-5 6,-10 13,-10 7,0 32,-9 55,-20 45,-22 62,-25 62,-10 0,5 -19,14 -42,21 -23,6 -47,17 -53,24 -13,17 -81,32 -71,16 z" /><path
           id="pgxRYI0Qf"
           d="m 10505,11870 c 8,-13 132,-70 152,-70 26,0 -2,25 -61,54 -53,26 -103,35 -91,16 z" /><path
           id="pwAGrxuzK"
           d="m 10690,11786 c 20,-19 60,-30 60,-17 0,6 -1,11 -3,11 -1,0 -18,4 -37,10 -29,8 -32,8 -20,-4 z" /><path
           id="p1D9VGbasS"
           d="m 10800,11743 c 0,-5 9,-14 20,-21 11,-7 20,-8 20,-2 0,5 -9,14 -20,20 -11,6 -20,7 -20,3 z" /><path
           id="pQgHmFZiZ"
           d="m 10890,11695 c 6,-7 23,-15 39,-18 16,-3 35,-12 42,-19 14,-13 194,-96 302,-138 31,-12 60,-26 63,-31 3,-5 14,-9 25,-9 10,0 19,-4 19,-10 0,-5 7,-10 15,-10 8,0 23,-4 33,-9 41,-20 118,-55 127,-56 10,-2 61,-26 252,-116 45,-22 84,-39 87,-39 3,0 47,-20 98,-43 51,-24 125,-57 163,-73 39,-16 72,-32 73,-36 2,-5 10,-8 18,-8 8,0 22,-4 32,-9 20,-12 188,-89 217,-101 11,-5 54,-24 95,-43 146,-67 200,-90 206,-84 11,10 -6,25 -35,32 -16,3 -35,13 -42,21 -6,8 -17,14 -23,14 -7,0 -48,17 -92,39 -45,21 -96,42 -115,46 -19,4 -45,16 -58,26 -13,11 -32,19 -41,19 -10,0 -23,7 -30,15 -7,8 -28,17 -48,21 -19,4 -43,14 -53,22 -25,21 -119,61 -146,62 -13,0 -23,4 -23,10 0,5 -17,14 -39,20 -21,5 -44,16 -50,24 -7,8 -24,17 -39,21 -15,4 -33,12 -40,18 -14,11 -113,55 -147,64 -11,3 -27,12 -35,19 -8,7 -30,15 -48,17 -19,3 -41,12 -50,20 -10,8 -30,17 -46,21 -16,4 -41,16 -54,27 -14,10 -35,19 -47,19 -13,0 -25,6 -28,14 -3,8 -21,17 -39,21 -18,4 -40,13 -48,20 -8,7 -30,16 -49,20 -18,4 -42,16 -52,26 -10,10 -30,19 -44,19 -14,0 -28,6 -31,14 -3,8 -20,20 -37,27 -18,6 -64,27 -103,45 -38,19 -82,34 -96,34 -15,0 -28,5 -30,11 -2,6 -16,13 -31,14 -22,3 -26,1 -17,-10 z" /><path
           id="pxzQIO73C"
           d="m 12821,10824 c 6,-8 17,-14 23,-14 6,0 44,-16 83,-35 40,-19 79,-35 88,-35 8,0 15,-4 15,-10 0,-5 5,-10 10,-10 10,0 47,-16 149,-61 24,-11 46,-18 48,-15 10,10 -8,24 -41,30 -19,4 -37,13 -40,21 -3,8 -11,15 -18,15 -7,0 -51,18 -97,41 -46,22 -98,43 -115,46 -17,3 -34,10 -37,15 -3,5 -23,13 -43,18 -31,7 -35,6 -25,-6 z" /><path
           id="p1RhXM5JO"
           d="m 13285,10619 c 8,-11 111,-59 129,-59 15,1 -33,40 -49,40 -7,0 -18,7 -25,15 -14,17 -65,21 -55,4 z" /><path
           id="pGK0Zuc9z"
           d="m 13392,10318 c -36,-88 -56,-127 -64,-122 -4,3 -8,-4 -8,-15 0,-10 -3,-27 -6,-36 -5,-13 -2,-16 17,-13 20,2 24,8 21,36 -2,26 2,32 18,32 26,0 74,92 66,126 -9,34 -29,30 -44,-8 z" /><path
           id="ptVqHlwFD"
           d="m 13276,10104 c -3,-9 -6,-23 -6,-33 0,-9 -9,-24 -20,-34 -11,-9 -20,-28 -20,-42 0,-18 5,-25 20,-25 21,0 23,7 20,53 -1,21 3,27 18,27 23,0 34,22 24,47 -9,23 -28,27 -36,7 z" /><path
           id="p18qnYrpME"
           d="m 13196,9927 c -6,-30 3,-53 11,-29 3,6 9,10 14,6 5,-3 9,8 9,24 0,39 -26,38 -34,-1 z" /><path
           id="p1BiS5yWQt"
           d="m 13157,9848 c -6,-42 -1,-48 14,-14 9,19 9,30 2,37 -7,7 -12,0 -16,-23 z" /><path
           id="phfExpA8i"
           d="m 12861,9279 c -6,-18 -11,-32 -11,-33 0,-1 42,-2 93,-3 57,-1 83,2 67,7 -14,4 -34,5 -46,3 -15,-3 -29,5 -47,26 -32,39 -42,39 -56,0 z" /><path
           id="pOUFyvnOH"
           d="m 13402,9289 c -68,-4 -146,-12 -173,-18 -28,-6 -74,-11 -104,-11 -30,0 -56,-3 -58,-8 -4,-6 5595,-7 5798,-1 l 60,1 -50,9 c -27,4 -137,15 -244,23 -168,14 -509,16 -2650,15 -1351,-1 -2511,-5 -2579,-10 z" /></g></g><g
       id="l4alFRDPog023UPs7rRzSmp"
       fill="#0061c6"
       transform="matrix(0.1,0,0,0.1,-3827,1534)"><g
         id="g7"><path
           id="p10iuq1Jj9"
           d="m 4786,14237 c -58,-10 -158,-53 -222,-98 -135,-92 -235,-247 -264,-409 -15,-78 -10,-176 30,-630 39,-436 70,-796 105,-1230 18,-223 40,-483 60,-720 20,-237 42,-497 60,-720 18,-223 40,-483 60,-720 20,-237 42,-497 60,-720 18,-223 40,-483 60,-720 26,-306 45,-536 71,-854 13,-170 27,-312 29,-315 3,-2 5,26 5,63 0,50 6,78 24,114 33,66 41,93 25,90 -17,-4 -26,60 -39,267 -5,94 -14,195 -19,225 -5,30 -12,134 -15,230 -4,96 -11,231 -16,300 -5,69 -14,195 -20,280 -6,85 -15,209 -20,275 -6,66 -17,210 -26,320 -17,232 -44,563 -104,1280 -6,66 -15,176 -21,245 -5,69 -14,177 -20,240 -15,174 -26,311 -49,580 -11,135 -29,351 -41,480 -11,129 -24,282 -29,340 -5,58 -14,150 -20,205 -6,55 -15,147 -20,205 -6,58 -14,141 -20,185 -5,44 -14,134 -20,200 -6,66 -20,172 -31,235 -24,144 -24,159 2,265 11,48 18,92 16,98 -2,7 4,26 14,44 10,17 23,49 28,71 6,22 29,60 51,85 22,25 40,50 40,57 0,6 4,9 9,5 5,-3 12,-1 15,4 8,12 95,61 110,61 6,0 24,7 40,15 17,9 46,16 65,16 38,1 102,19 100,29 -4,30 -15,36 -63,27 z" /><path
           id="pQJVnv45L"
           d="m 5065,14209 c -4,-6 -4,-13 -1,-16 8,-8 36,5 36,17 0,13 -27,13 -35,-1 z" /><path
           id="pDzQOa883"
           d="m 5126,14192 c -7,-12 30,-42 52,-42 23,-1 54,-25 44,-35 -4,-5 -1,-5 6,-1 7,4 15,1 18,-8 6,-17 34,-10 34,8 0,7 -17,21 -37,32 -21,10 -49,27 -62,37 -26,18 -47,22 -55,9 z" /><path
           id="p127kz43Ko"
           d="m 5353,14033 c -20,-7 -15,-23 7,-23 11,0 20,4 20,9 0,13 -12,19 -27,14 z" /><path
           id="p12muNEixH"
           d="m 5391,13983 c -10,-11 -8,-23 12,-67 14,-30 28,-73 32,-97 4,-24 13,-54 21,-66 8,-12 14,-35 14,-50 0,-27 20,-72 20,-45 0,6 7,12 15,12 40,0 -13,197 -79,294 -18,27 -24,30 -35,19 z" /><path
           id="pKsKpZDot"
           d="m 5490,13565 c 0,-30 5,-55 10,-55 6,0 10,5 10,10 0,6 7,10 15,10 9,0 15,9 15,25 0,16 -6,25 -15,25 -18,0 -20,26 -2,33 6,3 2,6 -10,6 -21,1 -23,-3 -23,-54 z" /><path
           id="pq0UK4onf"
           d="m 5517,13454 c -7,-38 3,-64 24,-64 14,0 19,7 19,29 0,60 -33,87 -43,35 z" /><path
           id="pOhgStUpI"
           d="m 5525,13265 c -6,-46 -4,-59 10,-75 16,-18 18,-39 18,-158 -1,-103 3,-143 13,-160 10,-16 16,-62 19,-152 2,-75 9,-139 16,-152 7,-13 16,-88 20,-166 4,-79 13,-150 19,-157 6,-7 15,-69 19,-137 4,-68 14,-134 21,-147 6,-13 16,-84 20,-158 5,-74 14,-141 20,-148 7,-8 14,-64 17,-126 2,-62 10,-131 18,-153 8,-23 16,-79 20,-126 7,-106 15,-160 27,-183 5,-9 13,-76 18,-148 5,-72 14,-136 19,-143 5,-6 12,-63 16,-126 4,-63 13,-132 20,-155 7,-22 16,-83 20,-135 4,-52 11,-113 17,-135 5,-22 16,-102 23,-178 8,-76 18,-144 23,-150 5,-7 12,-63 16,-125 3,-62 13,-132 21,-155 8,-23 18,-94 23,-158 6,-64 15,-126 22,-139 7,-12 16,-76 20,-141 4,-65 12,-124 18,-131 15,-18 22,-69 26,-173 1,-60 8,-101 19,-122 13,-24 17,-59 17,-145 0,-83 4,-121 16,-143 21,-40 35,-181 21,-212 -8,-19 -7,-27 5,-40 24,-23 48,-9 48,28 0,26 3,31 20,26 27,-7 25,1 -2,13 -18,7 -19,9 -5,9 25,1 23,51 -3,58 -24,6 -26,28 -5,37 10,4 14,14 10,28 -3,13 -14,95 -25,183 -24,184 -26,195 -46,195 -8,0 -14,5 -14,10 0,6 5,10 10,10 15,0 12,70 -11,235 -26,193 -27,195 -44,195 -8,0 -15,5 -15,10 0,6 5,10 10,10 13,0 13,52 0,138 -5,37 -19,137 -30,222 -75,552 -67,510 -88,511 -10,0 -12,3 -4,6 20,8 20,15 -42,468 -14,99 -30,218 -36,265 -15,119 -18,128 -38,133 -16,4 -16,5 1,6 15,1 17,7 12,34 -3,17 -12,84 -20,147 -8,63 -26,196 -39,295 -14,99 -30,218 -36,265 -15,118 -18,130 -35,130 -8,0 -15,5 -15,10 0,6 5,10 10,10 17,0 10,82 -30,359 -5,36 -21,154 -35,261 -32,239 -32,240 -50,240 -19,0 -20,16 -2,23 11,4 10,28 -2,133 -13,107 -19,129 -34,132 -18,4 -24,22 -7,22 11,0 14,78 4,104 -3,9 -12,16 -20,16 -8,0 -14,5 -14,10 0,6 4,10 9,10 11,0 19,30 14,48 -3,6 -11,12 -19,12 -8,0 -14,7 -14,15 0,8 5,15 10,15 6,0 10,5 10,10 0,6 -9,10 -19,10 -16,0 -21,-10 -26,-55 z" /><path
           id="p1CnCsnjmm"
           d="m 7750,8424 c 0,-9 5,-14 12,-12 18,6 21,28 4,28 -9,0 -16,-7 -16,-16 z" /><path
           id="pRSiVoRa7"
           d="m 7510,8384 c 0,-9 5,-14 12,-12 18,6 21,28 4,28 -9,0 -16,-7 -16,-16 z" /><path
           id="p4OS5Jr4J"
           d="m 6542,8229 c 2,-6 8,-10 13,-10 5,0 11,4 13,10 2,6 -4,11 -13,11 -9,0 -15,-5 -13,-11 z" /><path
           id="pkrSupWsS"
           d="m 4840,6992 5,-67 3,59 c 2,32 -1,63 -5,67 -4,4 -6,-22 -3,-59 z" /><path
           id="pQPXh3ZKv"
           d="m 7390,6602 c 0,-13 -6,-22 -15,-22 -12,0 -15,-18 -15,-100 0,-77 3,-100 14,-100 10,0 15,29 20,116 4,64 4,119 1,122 -3,3 -5,-4 -5,-16 z" /><path
           id="p10rAkQ6lh"
           d="m 9730,5943 c -19,-2 -154,-24 -300,-49 -146,-25 -292,-50 -325,-55 -33,-6 -63,-16 -67,-22 -5,-8 -8,-8 -8,-1 0,7 -280,-36 -767,-118 -423,-70 -769,-128 -770,-128 -7,0 -2,-46 5,-58 11,-17 164,-11 252,10 65,16 195,39 427,78 68,11 177,29 243,40 66,11 173,29 237,40 65,11 186,31 268,45 83,14 193,33 245,41 52,8 131,22 175,30 44,8 121,21 170,29 50,8 104,18 121,23 106,33 232,19 322,-35 26,-15 70,-38 98,-49 30,-13 72,-42 99,-70 26,-27 44,-43 41,-36 -5,7 -1,12 8,12 23,0 20,10 -15,63 -61,93 -182,174 -299,201 -54,13 -64,13 -77,0 -19,-18 -33,-18 -33,1 0,8 -3,14 -7,13 -5,0 -24,-3 -43,-5 z" /><path
           id="p27SSvOIz"
           d="m 4801,5609 c -7,-16 -11,-35 -8,-41 2,-7 9,4 16,25 16,46 10,57 -8,16 z" /><path
           id="pyw83wxy3"
           d="m 10207,5595 c 6,-69 9,-74 32,-68 24,6 29,33 6,33 -18,0 -20,16 -2,23 7,3 5,6 -5,6 -21,1 -24,17 -5,24 7,4 6,6 -5,6 -9,1 -18,7 -21,14 -2,6 -2,-10 0,-38 z" /><path
           id="p19OCrX9VO"
           d="m 10198,5348 c -8,-13 -19,-32 -26,-43 -7,-11 -21,-38 -31,-60 -10,-22 -45,-65 -78,-96 -82,-76 -133,-96 -403,-160 -47,-11 -118,-26 -158,-34 -40,-8 -80,-18 -90,-23 -9,-5 -41,-12 -71,-16 -30,-4 -70,-14 -89,-22 -19,-8 -48,-14 -63,-14 -16,0 -55,-9 -86,-20 -32,-11 -68,-20 -80,-20 -13,0 -49,-9 -80,-20 -32,-11 -68,-20 -80,-20 -13,0 -49,-9 -80,-20 -32,-11 -68,-20 -80,-20 -13,0 -49,-9 -80,-20 -32,-11 -70,-20 -85,-20 -15,0 -54,-8 -85,-19 -32,-10 -80,-23 -108,-29 -64,-13 -124,-29 -201,-53 -33,-11 -69,-19 -80,-19 -10,0 -48,-8 -84,-19 -36,-11 -87,-24 -115,-29 -46,-10 -107,-27 -300,-83 -38,-12 -90,-27 -115,-33 -34,-10 -47,-20 -54,-39 -12,-34 -7,-39 30,-27 16,6 574,146 1239,311 666,166 1237,310 1270,321 137,46 227,124 291,252 29,58 32,72 20,74 -9,2 -16,10 -16,17 0,25 -19,26 -32,3 z" /></g></g></g></g></svg>
